<svg xmlns="http://www.w3.org/2000/svg" viewBox="0 0 1200 900" width="1200" height="900" role="img" aria-label="Toyota Avanza — ilustrasi detail depan">
  <title>Toyota Avanza — ilustrasi detail depan</title>
  <defs>
    <linearGradient id="bg" x1="0" y1="0" x2="0" y2="1">
      <stop offset="0" stop-color="#FFFFFF"/>
      <stop offset="1" stop-color="#E4EBF2"/>
    </linearGradient>
    <clipPath id="frame">
      <rect x="0" y="0" width="1200" height="900"/>
    </clipPath>
  </defs>

  <rect width="1200" height="900" fill="url(#bg)"/>

  <g clip-path="url(#frame)">
    <g transform="translate(110.8 -241.5) scale(1.35)">

  <g>
    <ellipse cx="600" cy="704" rx="411.84000000000003" ry="18" fill="#0F2A43" opacity="0.10"/>
    <path d="
      M 204 534
      Q 204 508 230 508
      L 292 508
      L 328.96 404
      L 912.4 404
      L 930 508
      L 970 508
      Q 996 508 996 534
      L 996 596
      L 204 596
      Z" fill="#1D4568"/>
    <path d="
      M 306 496
      L 342.96 420
      L 898.4 420
      L 916 496
      Z" fill="#FFFFFF" opacity="0.32"/>
    <circle cx="378.24" cy="628" r="62" fill="#0F2A43"/>
    <circle cx="378.24" cy="628" r="18.599999999999998" fill="#1D4568"/>
    <circle cx="829.6800000000001" cy="628" r="62" fill="#0F2A43"/>
    <circle cx="829.6800000000001" cy="628" r="18.599999999999998" fill="#1D4568"/>
  </g>
    </g>
  </g>

  <!-- marka jalan: elemen tematik yang sama dipakai sebagai divider heading di seluruh situs -->
  <line x1="96" y1="768" x2="1104" y2="768" stroke="#E8A020" stroke-width="7"
        stroke-dasharray="64 44" stroke-linecap="round" opacity="0.8"/>

  <g font-family="Plus Jakarta Sans, Inter, system-ui, sans-serif">
    <rect x="908" y="56" width="236" height="58" rx="29" fill="#0F2A43" opacity="0.92"/>
    <text x="1026" y="94" font-size="26" font-weight="600" fill="#FFFFFF" text-anchor="middle">Detail Depan</text>

    <text x="1136" y="852" font-size="24" font-weight="500" fill="#1D4568" opacity="0.45"
          text-anchor="end">Foto ilustrasi — demo</text>
  </g>
</svg>
